<svg width="162" height="28" viewBox="0 0 162 28" fill="none" xmlns="http://www.w3.org/2000/svg">
<g filter="url(#filter0_d_962_11465)">
<path d="M16.3453 5H15.0101C14.9107 4.50284 14.7308 4.04356 14.4703 3.62216C14.2147 3.19602 13.8927 2.82434 13.5044 2.5071C13.1162 2.18987 12.6758 1.94366 12.1834 1.76847C11.691 1.59328 11.1583 1.50568 10.5854 1.50568C9.66684 1.50568 8.82878 1.74479 8.0712 2.22301C7.31836 2.70123 6.71467 3.40436 6.26012 4.33239C5.81031 5.25568 5.5854 6.38731 5.5854 7.72727C5.5854 9.0767 5.81031 10.2131 6.26012 11.1364C6.71467 12.0597 7.31836 12.7604 8.0712 13.2386C8.82878 13.7121 9.66684 13.9489 10.5854 13.9489C11.1583 13.9489 11.691 13.8613 12.1834 13.6861C12.6758 13.5109 13.1162 13.267 13.5044 12.9545C13.8927 12.6373 14.2147 12.2656 14.4703 11.8395C14.7308 11.4134 14.9107 10.9517 15.0101 10.4545H16.3453C16.227 11.1222 16.0044 11.7448 15.6777 12.3224C15.3558 12.8954 14.9438 13.3973 14.4419 13.8281C13.9448 14.259 13.3719 14.5952 12.7232 14.8366C12.0745 15.0781 11.3619 15.1989 10.5854 15.1989C9.36381 15.1989 8.27953 14.8935 7.33256 14.2827C6.38559 13.6671 5.64222 12.8007 5.10245 11.6832C4.56741 10.5658 4.29989 9.24716 4.29989 7.72727C4.29989 6.20739 4.56741 4.88873 5.10245 3.77131C5.64222 2.65388 6.38559 1.78977 7.33256 1.17898C8.27953 0.563446 9.36381 0.255681 10.5854 0.255681C11.3619 0.255681 12.0745 0.37642 12.7232 0.617898C13.3719 0.85464 13.9448 1.19081 14.4419 1.62642C14.9438 2.05729 15.3558 2.55919 15.6777 3.1321C16.0044 3.70502 16.227 4.32765 16.3453 5ZM23.4423 15.2273C22.5001 15.2273 21.6667 14.9882 20.9423 14.5099C20.2226 14.0317 19.6592 13.3712 19.252 12.5284C18.8448 11.6809 18.6412 10.7031 18.6412 9.59517C18.6412 8.47775 18.8448 7.49526 19.252 6.64773C19.6592 5.79545 20.2226 5.13258 20.9423 4.65909C21.6667 4.18087 22.5001 3.94176 23.4423 3.94176C24.3845 3.94176 25.2155 4.18087 25.9352 4.65909C26.6549 5.13731 27.2183 5.80019 27.6255 6.64773C28.0375 7.49526 28.2434 8.47775 28.2434 9.59517C28.2434 10.7031 28.0398 11.6809 27.6326 12.5284C27.2254 13.3712 26.6596 14.0317 25.9352 14.5099C25.2155 14.9882 24.3845 15.2273 23.4423 15.2273ZM23.4423 14.0696C24.1999 14.0696 24.8414 13.866 25.367 13.4588C25.8926 13.0516 26.2903 12.5095 26.5602 11.8324C26.8348 11.1553 26.9721 10.4096 26.9721 9.59517C26.9721 8.78078 26.8348 8.03267 26.5602 7.35085C26.2903 6.66903 25.8926 6.12216 25.367 5.71023C24.8414 5.2983 24.1999 5.09233 23.4423 5.09233C22.6895 5.09233 22.0479 5.2983 21.5176 5.71023C20.992 6.12216 20.5919 6.66903 20.3173 7.35085C20.0474 8.03267 19.9125 8.78078 19.9125 9.59517C19.9125 10.4096 20.0474 11.1553 20.3173 11.8324C20.5919 12.5095 20.992 13.0516 21.5176 13.4588C22.0431 13.866 22.6847 14.0696 23.4423 14.0696ZM31.0186 15V4.09091H32.2473V5.76705H32.361C32.5788 5.2036 32.941 4.76089 33.4476 4.43892C33.959 4.11222 34.5721 3.94886 35.2871 3.94886C36.04 3.94886 36.6578 4.12642 37.1408 4.48153C37.6285 4.83191 37.9931 5.31487 38.2346 5.9304H38.3269C38.5731 5.32434 38.9732 4.84375 39.5272 4.48864C40.0859 4.12879 40.763 3.94886 41.5584 3.94886C42.5717 3.94886 43.3719 4.26847 43.959 4.90767C44.5461 5.54214 44.8397 6.47017 44.8397 7.69176V15H43.5755V7.69176C43.5755 6.83002 43.3553 6.18371 42.915 5.75284C42.4746 5.32197 41.8946 5.10653 41.1749 5.10653C40.3416 5.10653 39.7 5.36222 39.2502 5.87358C38.8004 6.38494 38.5755 7.03362 38.5755 7.8196V15H37.2828V7.57812C37.2828 6.83949 37.0769 6.2429 36.665 5.78835C36.253 5.33381 35.673 5.10653 34.9249 5.10653C34.423 5.10653 33.9708 5.22964 33.5684 5.47585C33.1706 5.72206 32.8558 6.06534 32.6238 6.50568C32.3965 6.94129 32.2828 7.44318 32.2828 8.01136V15H31.0186ZM48.1866 15V4.09091H49.4153V5.76705H49.5289C49.7467 5.2036 50.109 4.76089 50.6156 4.43892C51.127 4.11222 51.7401 3.94886 52.4551 3.94886C53.2079 3.94886 53.8258 4.12642 54.3088 4.48153C54.7965 4.83191 55.161 5.31487 55.4025 5.9304H55.4949C55.7411 5.32434 56.1412 4.84375 56.6951 4.48864C57.2538 4.12879 57.9309 3.94886 58.7264 3.94886C59.7396 3.94886 60.5398 4.26847 61.127 4.90767C61.7141 5.54214 62.0076 6.47017 62.0076 7.69176V15H60.7434V7.69176C60.7434 6.83002 60.5233 6.18371 60.0829 5.75284C59.6426 5.32197 59.0626 5.10653 58.3429 5.10653C57.5095 5.10653 56.868 5.36222 56.4181 5.87358C55.9683 6.38494 55.7434 7.03362 55.7434 7.8196V15H54.4508V7.57812C54.4508 6.83949 54.2449 6.2429 53.8329 5.78835C53.421 5.33381 52.841 5.10653 52.0929 5.10653C51.591 5.10653 51.1388 5.22964 50.7363 5.47585C50.3386 5.72206 50.0237 6.06534 49.7917 6.50568C49.5645 6.94129 49.4508 7.44318 49.4508 8.01136V15H48.1866ZM72.2864 10.831V4.09091H73.5506V15H72.2864V13.1889H72.187C71.9313 13.7476 71.5265 14.214 70.9725 14.5881C70.4185 14.9574 69.7414 15.142 68.9412 15.142C68.2452 15.142 67.6273 14.9905 67.0875 14.6875C66.5478 14.3797 66.124 13.9299 65.8162 13.3381C65.5085 12.7462 65.3546 12.0194 65.3546 11.1577V4.09091H66.6188V11.0795C66.6188 11.9318 66.8697 12.6184 67.3716 13.1392C67.8735 13.6553 68.5175 13.9134 69.3034 13.9134C69.7959 13.9134 70.2694 13.795 70.7239 13.5582C71.1784 13.3215 71.5525 12.9759 71.8461 12.5213C72.1396 12.062 72.2864 11.4986 72.2864 10.831ZM78.1618 8.18182V15H76.8975V4.09091H78.1262V5.80256H78.2399C78.4956 5.24384 78.8933 4.7964 79.4331 4.46023C79.9776 4.11932 80.6499 3.94886 81.4501 3.94886C82.184 3.94886 82.8279 4.10275 83.3819 4.41051C83.9406 4.71354 84.3739 5.16098 84.6816 5.75284C84.9941 6.3447 85.1504 7.0715 85.1504 7.93324V15H83.8862V8.01136C83.8862 7.11648 83.6352 6.40862 83.1333 5.88778C82.6362 5.36695 81.9686 5.10653 81.1305 5.10653C80.5576 5.10653 80.0486 5.22964 79.6035 5.47585C79.1584 5.72206 78.8057 6.07718 78.5453 6.54119C78.2896 7.00047 78.1618 7.54735 78.1618 8.18182ZM88.4938 15V4.09091H89.7651V15H88.4938ZM89.1401 2.21591C88.8797 2.21591 88.6571 2.12831 88.4725 1.95312C88.2878 1.7732 88.1955 1.55777 88.1955 1.30682C88.1955 1.05587 88.2878 0.842803 88.4725 0.667614C88.6571 0.487689 88.8797 0.397726 89.1401 0.397726C89.4005 0.397726 89.623 0.487689 89.8077 0.667614C89.9924 0.842803 90.0847 1.05587 90.0847 1.30682C90.0847 1.55777 89.9924 1.7732 89.8077 1.95312C89.623 2.12831 89.4005 2.21591 89.1401 2.21591ZM97.4054 4.09091V5.19176H92.1994V4.09091H97.4054ZM93.8258 1.47727H95.0971V12.152C95.0971 12.6065 95.1752 12.964 95.3315 13.2244C95.4877 13.4801 95.6913 13.6624 95.9423 13.7713C96.1932 13.8755 96.4608 13.9276 96.7449 13.9276C96.9106 13.9276 97.0526 13.9181 97.171 13.8991C97.2894 13.8755 97.3935 13.8518 97.4835 13.8281L97.7534 14.9716C97.6303 15.0189 97.4788 15.0616 97.2988 15.0994C97.1189 15.142 96.8964 15.1634 96.6312 15.1634C96.1672 15.1634 95.7198 15.0616 95.2889 14.858C94.8627 14.6544 94.5124 14.3513 94.2377 13.9489C93.9631 13.5464 93.8258 13.0469 93.8258 12.4503V1.47727ZM101.157 19.0909C100.906 19.0909 100.672 19.0672 100.454 19.0199C100.236 18.9725 100.063 18.9205 99.9355 18.8636L100.276 17.7486C100.707 17.8812 101.091 17.9285 101.427 17.8906C101.763 17.8575 102.061 17.706 102.322 17.4361C102.582 17.1709 102.814 16.7637 103.018 16.2145L103.416 15.1065L99.4029 4.09091H100.774L104.012 13.331H104.112L107.35 4.09091H108.721L104.105 16.7259C103.91 17.2514 103.671 17.6894 103.387 18.0398C103.103 18.3949 102.774 18.6577 102.4 18.8281C102.031 19.0033 101.616 19.0909 101.157 19.0909ZM117.082 15V0.454545H121.99C122.937 0.454545 123.725 0.620265 124.355 0.951704C124.989 1.28314 125.465 1.73532 125.782 2.30824C126.1 2.88116 126.258 3.5322 126.258 4.26136C126.258 4.86742 126.157 5.38589 125.953 5.81676C125.749 6.24763 125.472 6.59564 125.122 6.8608C124.772 7.12595 124.381 7.31771 123.95 7.43608V7.54972C124.419 7.58286 124.873 7.74858 125.314 8.04688C125.754 8.34044 126.116 8.75237 126.4 9.28267C126.684 9.81297 126.827 10.4474 126.827 11.1861C126.827 11.92 126.663 12.5758 126.336 13.1534C126.01 13.7263 125.508 14.1785 124.831 14.5099C124.158 14.8366 123.301 15 122.26 15H117.082ZM118.41 13.8068H122.26C123.382 13.8068 124.211 13.5582 124.746 13.0611C125.285 12.5639 125.555 11.9389 125.555 11.1861C125.555 10.6321 125.42 10.1302 125.15 9.6804C124.885 9.22585 124.509 8.866 124.021 8.60085C123.538 8.3357 122.97 8.20312 122.317 8.20312H118.41V13.8068ZM118.41 7.02415H122.111C122.684 7.02415 123.185 6.90578 123.616 6.66903C124.047 6.43229 124.383 6.10559 124.625 5.68892C124.866 5.27225 124.987 4.7964 124.987 4.26136C124.987 3.48958 124.736 2.86222 124.234 2.37926C123.732 1.89157 122.984 1.64773 121.99 1.64773H118.41V7.02415ZM134.009 15.2273C133.066 15.2273 132.233 14.9882 131.509 14.5099C130.789 14.0317 130.226 13.3712 129.818 12.5284C129.411 11.6809 129.208 10.7031 129.208 9.59517C129.208 8.47775 129.411 7.49526 129.818 6.64773C130.226 5.79545 130.789 5.13258 131.509 4.65909C132.233 4.18087 133.066 3.94176 134.009 3.94176C134.951 3.94176 135.782 4.18087 136.502 4.65909C137.221 5.13731 137.785 5.80019 138.192 6.64773C138.604 7.49526 138.81 8.47775 138.81 9.59517C138.81 10.7031 138.606 11.6809 138.199 12.5284C137.792 13.3712 137.226 14.0317 136.502 14.5099C135.782 14.9882 134.951 15.2273 134.009 15.2273ZM134.009 14.0696C134.766 14.0696 135.408 13.866 135.933 13.4588C136.459 13.0516 136.857 12.5095 137.127 11.8324C137.401 11.1553 137.539 10.4096 137.539 9.59517C137.539 8.78078 137.401 8.03267 137.127 7.35085C136.857 6.66903 136.459 6.12216 135.933 5.71023C135.408 5.2983 134.766 5.09233 134.009 5.09233C133.256 5.09233 132.614 5.2983 132.084 5.71023C131.558 6.12216 131.158 6.66903 130.884 7.35085C130.614 8.03267 130.479 8.78078 130.479 9.59517C130.479 10.4096 130.614 11.1553 130.884 11.8324C131.158 12.5095 131.558 13.0516 132.084 13.4588C132.61 13.866 133.251 14.0696 134.009 14.0696ZM141.585 15V4.09091H142.814V5.76705H142.906C143.124 5.2178 143.503 4.77509 144.042 4.43892C144.587 4.09801 145.202 3.92756 145.889 3.92756C145.993 3.92756 146.109 3.92992 146.237 3.93466C146.365 3.93939 146.471 3.94413 146.557 3.94886V5.23438C146.5 5.22491 146.4 5.2107 146.258 5.19176C146.116 5.17282 145.962 5.16335 145.797 5.16335C145.229 5.16335 144.722 5.28409 144.277 5.52557C143.836 5.76231 143.488 6.09138 143.233 6.51278C142.977 6.93419 142.849 7.41477 142.849 7.95455V15H141.585ZM152.309 15.2273C151.415 15.2273 150.631 14.9905 149.959 14.517C149.286 14.0436 148.761 13.383 148.382 12.5355C148.008 11.688 147.821 10.7008 147.821 9.57386C147.821 8.4517 148.008 7.46922 148.382 6.62642C148.761 5.77888 149.289 5.12074 149.966 4.65199C150.643 4.1785 151.431 3.94176 152.331 3.94176C152.994 3.94176 153.545 4.06013 153.986 4.29688C154.426 4.52888 154.779 4.81771 155.044 5.16335C155.309 5.509 155.515 5.84517 155.662 6.17188H155.775V0.454545H157.047V15H155.811V12.9759H155.662C155.515 13.3073 155.307 13.6482 155.037 13.9986C154.767 14.3442 154.409 14.6354 153.964 14.8722C153.524 15.1089 152.972 15.2273 152.309 15.2273ZM152.459 14.0696C153.164 14.0696 153.765 13.8778 154.263 13.4943C154.76 13.1061 155.139 12.5734 155.399 11.8963C155.664 11.2145 155.797 10.4332 155.797 9.55256C155.797 8.68134 155.666 7.91193 155.406 7.24432C155.146 6.57197 154.767 6.0464 154.27 5.66761C153.773 5.28409 153.169 5.09233 152.459 5.09233C151.729 5.09233 151.114 5.29119 150.612 5.68892C150.115 6.08191 149.736 6.61458 149.476 7.28693C149.22 7.95928 149.092 8.71449 149.092 9.55256C149.092 10.4001 149.222 11.1648 149.483 11.8466C149.743 12.5284 150.122 13.0705 150.619 13.473C151.121 13.8707 151.734 14.0696 152.459 14.0696Z" fill="black"/>
</g>
<defs>
<filter id="filter0_d_962_11465" x="0.299805" y="0.255615" width="160.747" height="26.8352" filterUnits="userSpaceOnUse" color-interpolation-filters="sRGB">
<feFlood flood-opacity="0" result="BackgroundImageFix"/>
<feColorMatrix in="SourceAlpha" type="matrix" values="0 0 0 0 0 0 0 0 0 0 0 0 0 0 0 0 0 0 127 0" result="hardAlpha"/>
<feOffset dy="4"/>
<feGaussianBlur stdDeviation="2"/>
<feComposite in2="hardAlpha" operator="out"/>
<feColorMatrix type="matrix" values="0 0 0 0 0 0 0 0 0 0 0 0 0 0 0 0 0 0 0.25 0"/>
<feBlend mode="normal" in2="BackgroundImageFix" result="effect1_dropShadow_962_11465"/>
<feBlend mode="normal" in="SourceGraphic" in2="effect1_dropShadow_962_11465" result="shape"/>
</filter>
</defs>
</svg>
