<svg width="105" height="13" viewBox="0 0 105 13" fill="none" xmlns="http://www.w3.org/2000/svg">
<path d="M3.15341 10.1236C2.46307 10.1236 1.89347 9.98153 1.4446 9.69744C0.99858 9.41335 0.68608 9.01847 0.507102 8.51278C0.328125 8.00426 0.295455 7.41619 0.409091 6.74858C0.517045 6.07812 0.745739 5.49006 1.09517 4.98438C1.4446 4.47585 1.89063 4.07955 2.43324 3.79545C2.97585 3.51136 3.58949 3.36932 4.27415 3.36932C4.87926 3.36932 5.38778 3.47869 5.79972 3.69744C6.21449 3.91619 6.5142 4.22585 6.69886 4.62642C6.88636 5.02415 6.94176 5.49148 6.86506 6.02841H4.91761C4.93466 5.69602 4.86648 5.43466 4.71307 5.24432C4.55966 5.05114 4.33665 4.95455 4.04403 4.95455C3.79688 4.95455 3.5696 5.02273 3.36222 5.15909C3.15767 5.29261 2.98295 5.49148 2.83807 5.75568C2.69602 6.01705 2.59375 6.34091 2.53125 6.72727C2.46875 7.11364 2.46449 7.44034 2.51847 7.70739C2.57528 7.97159 2.68182 8.17187 2.83807 8.30824C2.99716 8.44176 3.19886 8.50852 3.44318 8.50852C3.63636 8.50852 3.81534 8.46733 3.98011 8.38494C4.14489 8.30256 4.28835 8.18182 4.41051 8.02273C4.53267 7.8608 4.62784 7.66477 4.69602 7.43466H6.6392C6.52841 7.97727 6.31392 8.45028 5.99574 8.85369C5.6804 9.25426 5.28125 9.56676 4.7983 9.79119C4.31534 10.0128 3.76705 10.1236 3.15341 10.1236ZM10.3263 10.1236C9.63601 10.1236 9.06641 9.98153 8.61754 9.69744C8.17152 9.41335 7.8576 9.01705 7.67578 8.50852C7.49396 8 7.45845 7.40909 7.56925 6.7358C7.68004 6.06534 7.90874 5.47727 8.25533 4.97159C8.60192 4.46591 9.0451 4.07244 9.58487 3.79119C10.1246 3.50994 10.7369 3.36932 11.4215 3.36932C12.109 3.36932 12.6758 3.51136 13.1218 3.79545C13.5707 4.07955 13.886 4.47585 14.0678 4.98438C14.2525 5.4929 14.2894 6.08523 14.1786 6.76136C14.0678 7.43182 13.8377 8.01989 13.4883 8.52557C13.1388 9.02841 12.6957 9.42045 12.1587 9.7017C11.6218 9.98295 11.011 10.1236 10.3263 10.1236ZM10.5607 8.55114C10.8164 8.55114 11.0451 8.47443 11.2468 8.32102C11.4513 8.16761 11.6232 7.95312 11.7624 7.67756C11.9016 7.40199 12.0011 7.08239 12.0607 6.71875C12.1204 6.3608 12.1261 6.04688 12.0778 5.77699C12.0323 5.50426 11.9357 5.29261 11.788 5.14205C11.6403 4.98864 11.44 4.91193 11.1871 4.91193C10.9315 4.91193 10.7013 4.99006 10.4968 5.14631C10.2923 5.29972 10.1204 5.5142 9.98118 5.78977C9.84482 6.0625 9.7468 6.3821 9.68714 6.74858C9.62749 7.10653 9.62038 7.42045 9.66584 7.69034C9.71129 7.96023 9.8093 8.17188 9.95987 8.32528C10.1104 8.47585 10.3107 8.55114 10.5607 8.55114ZM14.7177 10L15.8086 3.45455H17.7901L17.5941 4.65625H17.6665C17.8654 4.25852 18.1467 3.9446 18.5103 3.71449C18.8739 3.48438 19.2802 3.36932 19.729 3.36932C20.1808 3.36932 20.5487 3.4858 20.8327 3.71875C21.1197 3.9517 21.2745 4.2642 21.2972 4.65625H21.3654C21.5529 4.26705 21.8427 3.95597 22.2347 3.72301C22.6296 3.48722 23.07 3.36932 23.5558 3.36932C24.1694 3.36932 24.6367 3.56818 24.9577 3.96591C25.2816 4.3608 25.3853 4.90341 25.2688 5.59375L24.5359 10H22.4563L23.1211 6.07102C23.1665 5.74432 23.1183 5.49574 22.9762 5.32528C22.837 5.15199 22.6339 5.06534 22.3668 5.06534C22.0799 5.06534 21.8398 5.15767 21.6467 5.34233C21.4563 5.52699 21.3384 5.77699 21.293 6.09233L20.6325 10H18.6254L19.2944 6.04972C19.337 5.74574 19.2901 5.50568 19.1538 5.32955C19.0202 5.15341 18.8171 5.06534 18.5444 5.06534C18.3654 5.06534 18.1992 5.10937 18.0458 5.19744C17.8924 5.28267 17.7631 5.40483 17.658 5.56392C17.5558 5.72301 17.489 5.91051 17.4577 6.12642L16.8015 10H14.7177ZM25.8271 10L26.918 3.45455H28.8995L28.7035 4.65625H28.7759C28.9748 4.25852 29.256 3.9446 29.6197 3.71449C29.9833 3.48438 30.3896 3.36932 30.8384 3.36932C31.2901 3.36932 31.658 3.4858 31.9421 3.71875C32.229 3.9517 32.3839 4.2642 32.4066 4.65625H32.4748C32.6623 4.26705 32.9521 3.95597 33.3441 3.72301C33.739 3.48722 34.1793 3.36932 34.6651 3.36932C35.2788 3.36932 35.7461 3.56818 36.0671 3.96591C36.391 4.3608 36.4947 4.90341 36.3782 5.59375L35.6452 10H33.5657L34.2305 6.07102C34.2759 5.74432 34.2276 5.49574 34.0856 5.32528C33.9464 5.15199 33.7433 5.06534 33.4762 5.06534C33.1893 5.06534 32.9492 5.15767 32.756 5.34233C32.5657 5.52699 32.4478 5.77699 32.4023 6.09233L31.7418 10H29.7347L30.4038 6.04972C30.4464 5.74574 30.3995 5.50568 30.2631 5.32955C30.1296 5.15341 29.9265 5.06534 29.6538 5.06534C29.4748 5.06534 29.3086 5.10937 29.1552 5.19744C29.0018 5.28267 28.8725 5.40483 28.7674 5.56392C28.6651 5.72301 28.5984 5.91051 28.5671 6.12642L27.9109 10H25.8271ZM41.6154 7.17472L42.2376 3.45455H44.3171L43.2262 10H41.2404L41.4407 8.78125H41.3725C41.1708 9.18182 40.8739 9.5 40.4819 9.7358C40.0898 9.96875 39.6481 10.0852 39.1566 10.0852C38.7106 10.0852 38.3356 9.98295 38.0316 9.77841C37.7276 9.57386 37.5117 9.28835 37.3839 8.92188C37.2589 8.55256 37.2362 8.12074 37.3157 7.62642L38.0146 3.45455H40.0984L39.4719 7.21733C39.418 7.57244 39.4648 7.85227 39.6126 8.05682C39.7631 8.26136 39.9989 8.36364 40.32 8.36364C40.5273 8.36364 40.7219 8.31818 40.9038 8.22727C41.0856 8.13352 41.239 7.99858 41.364 7.82244C41.4918 7.64347 41.5756 7.42756 41.6154 7.17472ZM47.2713 6.26705L46.6491 10H44.5653L45.6562 3.45455H47.6378L47.4418 4.65625H47.5142C47.7188 4.25568 48.0156 3.94176 48.4048 3.71449C48.794 3.48438 49.2315 3.36932 49.7173 3.36932C50.1747 3.36932 50.5568 3.47159 50.8636 3.67614C51.1705 3.88068 51.3878 4.16761 51.5156 4.53693C51.6435 4.90341 51.6648 5.33381 51.5795 5.82812L50.8807 10H48.7969L49.4233 6.23722C49.4858 5.87642 49.4418 5.59375 49.2912 5.3892C49.1435 5.18182 48.902 5.07812 48.5668 5.07812C48.348 5.07812 48.1477 5.12642 47.9659 5.22301C47.7869 5.31676 47.6364 5.4517 47.5142 5.62784C47.3949 5.80398 47.3139 6.01705 47.2713 6.26705ZM52.158 10L53.2489 3.45455H55.3327L54.2418 10H52.158ZM54.4379 2.6875C54.1424 2.6875 53.9023 2.58949 53.7177 2.39347C53.533 2.19744 53.4606 1.96307 53.5004 1.69034C53.5401 1.41477 53.6793 1.1804 53.918 0.987216C54.1566 0.794034 54.4222 0.697443 54.7148 0.697443C55.0103 0.697443 55.2475 0.794034 55.4265 0.987216C55.6083 1.1804 55.6793 1.41477 55.6396 1.69034C55.6055 1.96307 55.4691 2.19744 55.2305 2.39347C54.9947 2.58949 54.7305 2.6875 54.4379 2.6875ZM60.3537 3.45455L60.0938 4.98864H55.9645L56.2244 3.45455H60.3537ZM57.3452 1.88636H59.429L58.4233 7.94176C58.4034 8.0696 58.4063 8.1733 58.4318 8.25284C58.4602 8.32955 58.5114 8.38494 58.5852 8.41903C58.6619 8.45028 58.7557 8.46591 58.8665 8.46591C58.9432 8.46591 59.0284 8.45739 59.1222 8.44034C59.2159 8.4233 59.2869 8.41051 59.3352 8.40199L59.4034 9.90625C59.2926 9.9375 59.1435 9.97301 58.956 10.0128C58.7713 10.0554 58.5554 10.0824 58.3082 10.0938C57.8082 10.1136 57.3949 10.0554 57.0682 9.91903C56.7443 9.77983 56.5156 9.56392 56.3821 9.27131C56.2514 8.97869 56.2259 8.61222 56.3054 8.17188L57.3452 1.88636ZM61.1996 12.4545C60.9496 12.4545 60.7166 12.4347 60.5007 12.3949C60.2876 12.358 60.1058 12.3082 59.9553 12.2457L60.6712 10.733C60.8615 10.8011 61.0362 10.8395 61.1953 10.848C61.3572 10.8594 61.5021 10.8324 61.63 10.767C61.7607 10.7045 61.8743 10.5923 61.9709 10.4304L62.0902 10.2301L60.8928 3.45455H62.9979L63.424 8.12926H63.4922L65.495 3.45455H67.7663L64.1143 10.6264C63.9297 10.9844 63.7067 11.3011 63.4453 11.5767C63.1839 11.8523 62.8686 12.0668 62.4993 12.2202C62.1328 12.3764 61.6996 12.4545 61.1996 12.4545ZM70.0526 10L71.5014 1.27273H73.5852L73.044 4.57528H73.0866C73.2003 4.37642 73.3509 4.18466 73.5384 4C73.7287 3.81534 73.9574 3.66477 74.2244 3.5483C74.4915 3.42898 74.7969 3.36932 75.1406 3.36932C75.5952 3.36932 76 3.48864 76.3551 3.72727C76.7102 3.96591 76.9688 4.33381 77.1307 4.83097C77.2926 5.32812 77.3097 5.96165 77.1818 6.73153C77.0597 7.47301 76.8395 8.09375 76.5213 8.59375C76.2031 9.09375 75.8239 9.46875 75.3835 9.71875C74.946 9.96875 74.4858 10.0938 74.0028 10.0938C73.6733 10.0938 73.3963 10.0398 73.1719 9.93182C72.9503 9.82386 72.7727 9.68182 72.6392 9.50568C72.5085 9.32955 72.4176 9.14062 72.3665 8.93892H72.2855L72.1151 10H70.0526ZM72.6392 6.72727C72.5824 7.07955 72.5795 7.38636 72.6307 7.64773C72.6847 7.90909 72.7884 8.11222 72.9418 8.2571C73.098 8.39915 73.304 8.47017 73.5597 8.47017C73.8153 8.47017 74.044 8.39915 74.2457 8.2571C74.4474 8.11222 74.6165 7.90909 74.7528 7.64773C74.8892 7.38636 74.9858 7.07955 75.0426 6.72727C75.0994 6.375 75.1023 6.0696 75.0511 5.81108C75.0028 5.55256 74.902 5.35227 74.7486 5.21023C74.5952 5.06818 74.3892 4.99716 74.1307 4.99716C73.875 4.99716 73.6449 5.06676 73.4403 5.20597C73.2386 5.34517 73.0682 5.54403 72.929 5.80256C72.7926 6.06108 72.696 6.36932 72.6392 6.72727ZM80.7795 10.1236C80.0891 10.1236 79.5195 9.98153 79.0707 9.69744C78.6246 9.41335 78.3107 9.01705 78.1289 8.50852C77.9471 8 77.9116 7.40909 78.0224 6.7358C78.1332 6.06534 78.3619 5.47727 78.7085 4.97159C79.055 4.46591 79.4982 4.07244 80.038 3.79119C80.5778 3.50994 81.19 3.36932 81.8746 3.36932C82.5621 3.36932 83.1289 3.51136 83.5749 3.79545C84.0238 4.07955 84.3391 4.47585 84.521 4.98438C84.7056 5.4929 84.7425 6.08523 84.6317 6.76136C84.521 7.43182 84.2908 8.01989 83.9414 8.52557C83.592 9.02841 83.1488 9.42045 82.6119 9.7017C82.0749 9.98295 81.4641 10.1236 80.7795 10.1236ZM81.0138 8.55114C81.2695 8.55114 81.4982 8.47443 81.6999 8.32102C81.9045 8.16761 82.0763 7.95312 82.2156 7.67756C82.3548 7.40199 82.4542 7.08239 82.5138 6.71875C82.5735 6.3608 82.5792 6.04688 82.5309 5.77699C82.4854 5.50426 82.3888 5.29261 82.2411 5.14205C82.0934 4.98864 81.8931 4.91193 81.6403 4.91193C81.3846 4.91193 81.1545 4.99006 80.9499 5.14631C80.7454 5.29972 80.5735 5.5142 80.4343 5.78977C80.2979 6.0625 80.1999 6.3821 80.1403 6.74858C80.0806 7.10653 80.0735 7.42045 80.119 7.69034C80.1644 7.96023 80.2624 8.17188 80.413 8.32528C80.5636 8.47585 80.7638 8.55114 81.0138 8.55114ZM86.9862 10.1108C86.5714 10.1108 86.2134 10.0412 85.9123 9.90199C85.614 9.75994 85.3952 9.54545 85.256 9.25852C85.1197 8.97159 85.087 8.61364 85.158 8.18466C85.2205 7.82102 85.3356 7.51562 85.5032 7.26847C85.6737 7.01847 85.8825 6.81534 86.1296 6.65909C86.3796 6.50284 86.658 6.38352 86.9648 6.30114C87.2717 6.21875 87.5927 6.16335 87.9279 6.13494C88.3029 6.10085 88.6069 6.06392 88.8398 6.02415C89.0756 5.98437 89.2518 5.92898 89.3683 5.85795C89.4847 5.78409 89.5558 5.68182 89.5813 5.55114V5.52983C89.6154 5.31108 89.5685 5.14205 89.4407 5.02273C89.3129 4.90341 89.1211 4.84375 88.8654 4.84375C88.5927 4.84375 88.3597 4.90341 88.1665 5.02273C87.9734 5.14205 87.8384 5.30682 87.7617 5.51705L85.8526 5.44886C85.9719 5.05114 86.1765 4.69602 86.4663 4.38352C86.756 4.06818 87.1239 3.82102 87.57 3.64205C88.0188 3.46023 88.5373 3.36932 89.1254 3.36932C89.5401 3.36932 89.9151 3.41903 90.2504 3.51847C90.5856 3.61506 90.8683 3.7571 91.0984 3.9446C91.3313 4.12926 91.4975 4.35653 91.5969 4.62642C91.6964 4.89631 91.7177 5.20455 91.6609 5.55114L90.9151 10H88.9549L89.1083 9.08807H89.0572C88.9038 9.30966 88.7234 9.49716 88.516 9.65057C88.3114 9.80398 88.0813 9.91903 87.8256 9.99574C87.57 10.0724 87.2901 10.1108 86.9862 10.1108ZM87.864 8.74716C88.0827 8.74716 88.2901 8.7017 88.4862 8.6108C88.6822 8.51989 88.8469 8.39489 88.9805 8.2358C89.1168 8.07386 89.2035 7.88636 89.2404 7.6733L89.3384 7.05114C89.2788 7.08239 89.2035 7.1108 89.1126 7.13636C89.0217 7.16193 88.9251 7.18608 88.8228 7.20881C88.7205 7.22869 88.6154 7.24858 88.5075 7.26847C88.4023 7.28551 88.3015 7.30114 88.2049 7.31534C88.0004 7.34659 87.8228 7.39489 87.6722 7.46023C87.5217 7.52557 87.4009 7.6108 87.31 7.71591C87.2219 7.81818 87.168 7.94034 87.1481 8.08239C87.114 8.29545 87.1637 8.46023 87.2972 8.5767C87.4308 8.69034 87.6197 8.74716 87.864 8.74716ZM92.1893 10L93.2802 3.45455H95.3043L95.104 4.64773H95.1722C95.3626 4.21591 95.6112 3.89489 95.918 3.68466C96.2248 3.47159 96.5572 3.36506 96.9151 3.36506C97.0117 3.36506 97.1083 3.37216 97.2049 3.38636C97.3043 3.39773 97.3981 3.41477 97.4862 3.4375L97.1793 5.25284C97.0827 5.21591 96.9563 5.18892 96.8001 5.17188C96.6438 5.15199 96.5018 5.14205 96.3739 5.14205C96.1268 5.14205 95.8967 5.19744 95.6836 5.30824C95.4734 5.41619 95.2944 5.56818 95.1467 5.7642C95.0018 5.95739 94.9066 6.18466 94.8612 6.44602L94.2731 10H92.1893ZM99.2823 10.0938C98.7994 10.0938 98.3803 9.96875 98.0252 9.71875C97.6701 9.46875 97.4158 9.09375 97.2624 8.59375C97.1119 8.09375 97.0977 7.47301 97.2198 6.73153C97.3477 5.96165 97.5749 5.32812 97.9016 4.83097C98.2283 4.33381 98.609 3.96591 99.0437 3.72727C99.4812 3.48864 99.9272 3.36932 100.382 3.36932C100.725 3.36932 101.01 3.42898 101.234 3.5483C101.461 3.66477 101.639 3.81534 101.767 4C101.895 4.18466 101.983 4.37642 102.031 4.57528H102.078L102.627 1.27273H104.711L103.262 10H101.2L101.375 8.93892H101.311C101.189 9.14062 101.032 9.32955 100.842 9.50568C100.652 9.68182 100.426 9.82386 100.164 9.93182C99.9059 10.0398 99.6119 10.0938 99.2823 10.0938ZM100.267 8.47017C100.52 8.47017 100.748 8.39915 100.953 8.2571C101.157 8.11222 101.329 7.90909 101.468 7.64773C101.61 7.38636 101.71 7.07955 101.767 6.72727C101.826 6.36932 101.829 6.06108 101.775 5.80256C101.721 5.54403 101.615 5.34517 101.456 5.20597C101.299 5.06676 101.093 4.99716 100.838 4.99716C100.582 4.99716 100.353 5.06818 100.152 5.21023C99.9499 5.35227 99.7823 5.55256 99.6488 5.81108C99.5153 6.0696 99.4187 6.375 99.359 6.72727C99.3022 7.07955 99.2965 7.38636 99.342 7.64773C99.3903 7.90909 99.4911 8.11222 99.6445 8.2571C99.8008 8.39915 100.008 8.47017 100.267 8.47017Z" fill="black"/>
</svg>
