<svg width="301" height="246" viewBox="0 0 301 246" fill="none" xmlns="http://www.w3.org/2000/svg">
<g opacity="0.61">
<circle cx="146.108" cy="124.059" r="92.2435" fill="#34C1FD" fill-opacity="0.63" stroke="#A1E1FC" stroke-width="4"/>
<path d="M61.1023 123.569C65.7053 123.09 71.974 122.653 79.5666 122.278C96.5791 121.439 120.106 120.919 146.108 120.919C172.111 120.919 195.637 121.439 212.65 122.278C220.242 122.653 226.511 123.09 231.114 123.569C226.511 124.049 220.242 124.486 212.65 124.861C195.637 125.7 172.111 126.22 146.108 126.22C120.106 126.22 96.5791 125.7 79.5666 124.861C71.974 124.486 65.7053 124.049 61.1023 123.569Z" stroke="#A1E1FC" stroke-width="4"/>
<path d="M64.3442 154.413C64.391 154.406 64.4381 154.4 64.4854 154.393C68.8919 153.789 75.3193 153.239 83.3201 152.775C99.3065 151.847 121.419 151.272 145.863 151.272C170.307 151.272 192.42 151.847 208.407 152.775C216.407 153.239 222.835 153.789 227.241 154.393C227.289 154.4 227.336 154.406 227.383 154.413C227.336 154.419 227.289 154.426 227.241 154.432C222.835 155.037 216.407 155.587 208.407 156.051C192.42 156.978 170.307 157.553 145.863 157.553C121.419 157.553 99.3065 156.978 83.3201 156.051C75.3193 155.587 68.8919 155.037 64.4854 154.432C64.4381 154.426 64.391 154.419 64.3442 154.413Z" stroke="#A1E1FC" stroke-width="4"/>
<path d="M91.4178 53.0704C94.2188 52.7243 97.7752 52.4046 101.961 52.1234C113.111 51.3742 128.547 50.909 145.619 50.909C162.69 50.909 178.127 51.3742 189.277 52.1234C193.462 52.4046 197.018 52.7243 199.819 53.0704C197.018 53.4166 193.462 53.7363 189.277 54.0175C178.127 54.7667 162.69 55.2318 145.619 55.2318C128.547 55.2318 113.111 54.7667 101.961 54.0175C97.7752 53.7363 94.2188 53.4166 91.4178 53.0704Z" stroke="#A1E1FC" stroke-width="4"/>
<path d="M66.4647 85.6273C66.712 85.588 66.968 85.5487 67.2328 85.5095C71.497 84.8776 77.7225 84.3015 85.4783 83.8154C100.973 82.8442 122.41 82.2419 146.108 82.2419C169.807 82.2419 191.243 82.8442 206.738 83.8154C214.494 84.3015 220.719 84.8776 224.984 85.5095C225.249 85.5487 225.505 85.588 225.752 85.6273C225.505 85.6666 225.249 85.7059 224.984 85.7451C220.719 86.377 214.494 86.9531 206.738 87.4392C191.243 88.4104 169.807 89.0126 146.108 89.0126C122.41 89.0126 100.973 88.4104 85.4783 87.4392C77.7225 86.9531 71.497 86.377 67.2328 85.7451C66.968 85.7059 66.712 85.6666 66.4647 85.6273Z" stroke="#A1E1FC" stroke-width="4"/>
<path d="M212.353 185.863C212.591 185.906 212.821 185.948 213.041 185.991C212.821 186.033 212.591 186.075 212.353 186.118C208.835 186.744 203.68 187.319 197.235 187.804C184.364 188.774 166.547 189.376 146.843 189.376C127.138 189.376 109.321 188.774 96.4502 187.804C90.0051 187.319 84.8499 186.744 81.3323 186.118C81.0939 186.075 80.8647 186.033 80.6446 185.991C80.8647 185.948 81.0939 185.906 81.3323 185.863C84.8499 185.237 90.0051 184.662 96.4502 184.177C109.321 183.207 127.138 182.605 146.843 182.605C166.547 182.605 184.364 183.207 197.235 184.177C203.68 184.662 208.835 185.237 212.353 185.863Z" stroke="#A1E1FC" stroke-width="4"/>
<path d="M161.488 124.059C161.488 150.006 159.684 173.449 156.785 190.361C155.332 198.834 153.621 205.572 151.767 210.145C150.837 212.441 149.916 214.076 149.055 215.104C148.179 216.149 147.598 216.303 147.332 216.303C147.066 216.303 146.485 216.149 145.609 215.104C144.749 214.076 143.828 212.441 142.897 210.145C141.043 205.572 139.332 198.834 137.879 190.361C134.98 173.449 133.176 150.006 133.176 124.059C133.176 98.1118 134.98 74.6693 137.879 57.7568C139.332 49.2843 141.043 42.5465 142.897 37.9729C143.828 35.6769 144.749 34.0418 145.609 33.0146C146.485 31.9687 147.066 31.8156 147.332 31.8156C147.598 31.8156 148.179 31.9687 149.055 33.0146C149.916 34.0418 150.837 35.6769 151.767 37.9729C153.621 42.5465 155.332 49.2843 156.785 57.7568C159.684 74.6693 161.488 98.1118 161.488 124.059Z" stroke="#A1E1FC" stroke-width="4"/>
<path d="M189.394 124.059C189.394 149.851 184.366 173.104 176.327 189.833C168.22 206.706 157.406 216.303 146.108 216.303C134.81 216.303 123.997 206.706 115.889 189.833C107.85 173.104 102.822 149.851 102.822 124.059C102.822 98.2669 107.85 75.0146 115.889 58.2851C123.997 41.4121 134.81 31.8156 146.108 31.8156C157.406 31.8156 168.22 41.4121 176.327 58.2851C184.366 75.0146 189.394 98.2669 189.394 124.059Z" stroke="#A1E1FC" stroke-width="4"/>
<path d="M216.321 124.059C216.321 149.688 208.44 172.814 195.792 189.491C183.145 206.166 165.82 216.303 146.843 216.303C127.866 216.303 110.54 206.166 97.8934 189.491C85.2455 172.814 77.3644 149.688 77.3644 124.059C77.3644 98.4306 85.2455 75.3037 97.8934 58.6274C110.54 41.9526 127.866 31.8156 146.843 31.8156C165.82 31.8156 183.145 41.9526 195.792 58.6274C208.44 75.3037 216.321 98.4306 216.321 124.059Z" stroke="#A1E1FC" stroke-width="4"/>
<path d="M68.6451 38.0471L69.4942 54.249L55.0384 46.8834L68.6451 38.0471Z" fill="#BCEBFF"/>
<path d="M75.6706 25.1623C75.6706 39.0591 59.3014 50.3246 38.2026 50.3246C17.1039 50.3246 0 39.0591 0 25.1623C0 11.2655 17.1039 0 38.2026 0C59.3014 0 75.6706 11.2655 75.6706 25.1623Z" fill="#BCEBFF"/>
<path d="M229.91 206.767L228.989 189.192L244.671 197.182L229.91 206.767Z" fill="#BCEBFF"/>
<path d="M218.403 218.705C218.403 203.63 236.16 191.409 259.047 191.409C281.934 191.409 300.488 203.63 300.488 218.705C300.488 233.779 281.934 246 259.047 246C236.16 246 218.403 233.779 218.403 218.705Z" fill="#BCEBFF"/>
</g>
</svg>
